G04 ---------------------------- Layer name :BOTTOM LAYER*
G04 EasyEDA v5.6.10, Tue, 17 Jul 2018 20:10:34 GMT*
G04 41f5d608da314f4496c1683ca2e9a323*
G04 Gerber Generator version 0.2*
G04 Scale: 100 percent, Rotated: No, Reflected: No *
G04 Dimensions in millimeters *
G04 leading zeros omitted , absolute positions ,3 integer and 3 decimal *
%FSLAX33Y33*%
%MOMM*%
G90*
G71D02*

%ADD10C,0.254000*%
%ADD11R,0.999998X1.099998*%
%ADD12R,0.599948X0.649986*%
%ADD17C,1.524000*%
%ADD18R,1.399997X1.399997*%
%ADD19C,1.399997*%

%LPD*%
G36*
G01X76Y0D02*
G01X76Y11176D01*
G01X12190Y10989D01*
G01X12183Y10984D01*
G01X12103Y10921D01*
G01X12031Y10851D01*
G01X11966Y10773D01*
G01X11909Y10689D01*
G01X11860Y10600D01*
G01X11821Y10507D01*
G01X11791Y10410D01*
G01X11771Y10311D01*
G01X11761Y10210D01*
G01X11761Y10109D01*
G01X11771Y10008D01*
G01X11791Y9909D01*
G01X11821Y9812D01*
G01X11860Y9719D01*
G01X11909Y9630D01*
G01X11966Y9546D01*
G01X12031Y9468D01*
G01X12103Y9398D01*
G01X12183Y9335D01*
G01X12268Y9280D01*
G01X12358Y9233D01*
G01X12452Y9196D01*
G01X12550Y9169D01*
G01X12649Y9151D01*
G01X12750Y9144D01*
G01X12852Y9146D01*
G01X12952Y9159D01*
G01X13051Y9181D01*
G01X13147Y9214D01*
G01X13239Y9255D01*
G01X13327Y9306D01*
G01X13409Y9365D01*
G01X13485Y9432D01*
G01X13507Y9455D01*
G01X13508Y9453D01*
G01X13515Y9445D01*
G01X13522Y9437D01*
G01X13529Y9430D01*
G01X13537Y9422D01*
G01X13544Y9416D01*
G01X13553Y9409D01*
G01X13561Y9403D01*
G01X13570Y9397D01*
G01X13579Y9391D01*
G01X13588Y9386D01*
G01X13597Y9381D01*
G01X13607Y9377D01*
G01X13616Y9373D01*
G01X13626Y9369D01*
G01X13636Y9366D01*
G01X13646Y9363D01*
G01X13657Y9361D01*
G01X13667Y9359D01*
G01X13677Y9357D01*
G01X13688Y9356D01*
G01X13698Y9356D01*
G01X13709Y9355D01*
G01X14010Y9355D01*
G01X14010Y9201D01*
G01X14009Y9201D01*
G01X13999Y9197D01*
G01X13989Y9193D01*
G01X13980Y9189D01*
G01X13970Y9184D01*
G01X13961Y9179D01*
G01X13952Y9173D01*
G01X13944Y9167D01*
G01X13935Y9161D01*
G01X13927Y9154D01*
G01X13919Y9147D01*
G01X13912Y9140D01*
G01X13904Y9132D01*
G01X13897Y9125D01*
G01X13891Y9116D01*
G01X13884Y9108D01*
G01X13879Y9099D01*
G01X13873Y9090D01*
G01X13868Y9081D01*
G01X13863Y9072D01*
G01X13859Y9062D01*
G01X13855Y9053D01*
G01X13851Y9043D01*
G01X13848Y9033D01*
G01X13845Y9023D01*
G01X13843Y9012D01*
G01X13841Y9002D01*
G01X13839Y8992D01*
G01X13838Y8981D01*
G01X13837Y8971D01*
G01X13837Y8960D01*
G01X13837Y8311D01*
G01X13837Y8300D01*
G01X13838Y8290D01*
G01X13839Y8279D01*
G01X13841Y8269D01*
G01X13843Y8259D01*
G01X13845Y8248D01*
G01X13848Y8238D01*
G01X13851Y8228D01*
G01X13855Y8218D01*
G01X13859Y8209D01*
G01X13863Y8199D01*
G01X13868Y8190D01*
G01X13873Y8181D01*
G01X13879Y8172D01*
G01X13884Y8163D01*
G01X13891Y8155D01*
G01X13897Y8146D01*
G01X13904Y8139D01*
G01X13912Y8131D01*
G01X13919Y8124D01*
G01X13927Y8117D01*
G01X13935Y8110D01*
G01X13944Y8104D01*
G01X13952Y8098D01*
G01X13961Y8092D01*
G01X13970Y8087D01*
G01X13980Y8082D01*
G01X13989Y8078D01*
G01X13999Y8074D01*
G01X14009Y8070D01*
G01X14019Y8067D01*
G01X14029Y8064D01*
G01X14039Y8062D01*
G01X14049Y8060D01*
G01X14060Y8059D01*
G01X14070Y8057D01*
G01X14081Y8057D01*
G01X14091Y8057D01*
G01X14691Y8057D01*
G01X14702Y8057D01*
G01X14707Y8057D01*
G01X13172Y6522D01*
G01X13147Y6533D01*
G01X13051Y6566D01*
G01X12952Y6588D01*
G01X12852Y6601D01*
G01X12750Y6603D01*
G01X12649Y6596D01*
G01X12550Y6578D01*
G01X12452Y6551D01*
G01X12358Y6514D01*
G01X12268Y6467D01*
G01X12183Y6412D01*
G01X12103Y6349D01*
G01X12031Y6279D01*
G01X11966Y6201D01*
G01X11909Y6117D01*
G01X11860Y6028D01*
G01X11821Y5935D01*
G01X11791Y5838D01*
G01X11771Y5739D01*
G01X11761Y5638D01*
G01X11761Y5537D01*
G01X11771Y5436D01*
G01X11791Y5337D01*
G01X11821Y5240D01*
G01X11860Y5147D01*
G01X11909Y5058D01*
G01X11966Y4974D01*
G01X12031Y4896D01*
G01X12103Y4826D01*
G01X12183Y4763D01*
G01X12268Y4708D01*
G01X12358Y4661D01*
G01X12452Y4624D01*
G01X12550Y4597D01*
G01X12649Y4579D01*
G01X12750Y4572D01*
G01X12852Y4574D01*
G01X12952Y4587D01*
G01X13051Y4609D01*
G01X13147Y4642D01*
G01X13239Y4683D01*
G01X13327Y4734D01*
G01X13409Y4793D01*
G01X13485Y4860D01*
G01X13554Y4934D01*
G01X13615Y5015D01*
G01X13668Y5102D01*
G01X13712Y5193D01*
G01X13747Y5288D01*
G01X13772Y5386D01*
G01X13787Y5486D01*
G01X13792Y5588D01*
G01X13787Y5689D01*
G01X13772Y5789D01*
G01X13747Y5887D01*
G01X13712Y5982D01*
G01X13711Y5984D01*
G01X15509Y7782D01*
G01X15518Y7791D01*
G01X15527Y7801D01*
G01X15535Y7811D01*
G01X15543Y7821D01*
G01X15551Y7832D01*
G01X15558Y7842D01*
G01X15565Y7853D01*
G01X15572Y7865D01*
G01X15578Y7876D01*
G01X15584Y7888D01*
G01X15589Y7900D01*
G01X15594Y7912D01*
G01X15599Y7924D01*
G01X15603Y7936D01*
G01X15606Y7949D01*
G01X15610Y7961D01*
G01X15613Y7974D01*
G01X15615Y7987D01*
G01X15617Y7999D01*
G01X15618Y8012D01*
G01X15620Y8025D01*
G01X15620Y8038D01*
G01X15621Y8051D01*
G01X15621Y8070D01*
G01X15622Y8070D01*
G01X15632Y8074D01*
G01X15642Y8078D01*
G01X15651Y8082D01*
G01X15660Y8087D01*
G01X15669Y8092D01*
G01X15678Y8098D01*
G01X15687Y8104D01*
G01X15695Y8110D01*
G01X15704Y8117D01*
G01X15712Y8124D01*
G01X15719Y8131D01*
G01X15726Y8139D01*
G01X15733Y8146D01*
G01X15740Y8155D01*
G01X15746Y8163D01*
G01X15752Y8172D01*
G01X15758Y8181D01*
G01X15763Y8190D01*
G01X15768Y8199D01*
G01X15772Y8209D01*
G01X15776Y8218D01*
G01X15780Y8228D01*
G01X15783Y8238D01*
G01X15786Y8248D01*
G01X15788Y8259D01*
G01X15790Y8269D01*
G01X15792Y8279D01*
G01X15793Y8290D01*
G01X15793Y8300D01*
G01X15793Y8311D01*
G01X15793Y8651D01*
G01X16078Y8935D01*
G01X16087Y8944D01*
G01X16095Y8954D01*
G01X16104Y8964D01*
G01X16112Y8974D01*
G01X16119Y8984D01*
G01X16127Y8995D01*
G01X16134Y9006D01*
G01X16140Y9017D01*
G01X16146Y9029D01*
G01X16152Y9041D01*
G01X16158Y9052D01*
G01X16163Y9064D01*
G01X16167Y9077D01*
G01X16171Y9089D01*
G01X16175Y9101D01*
G01X16178Y9114D01*
G01X16181Y9127D01*
G01X16184Y9139D01*
G01X16186Y9152D01*
G01X16187Y9165D01*
G01X16188Y9178D01*
G01X16189Y9191D01*
G01X16189Y9204D01*
G01X16189Y9355D01*
G01X16308Y9355D01*
G01X16319Y9356D01*
G01X16329Y9356D01*
G01X16340Y9357D01*
G01X16350Y9359D01*
G01X16360Y9361D01*
G01X16371Y9363D01*
G01X16381Y9366D01*
G01X16391Y9369D01*
G01X16401Y9373D01*
G01X16410Y9377D01*
G01X16420Y9381D01*
G01X16429Y9386D01*
G01X16438Y9391D01*
G01X16447Y9397D01*
G01X16456Y9403D01*
G01X16464Y9409D01*
G01X16472Y9416D01*
G01X16480Y9422D01*
G01X16488Y9430D01*
G01X16495Y9437D01*
G01X16502Y9445D01*
G01X16509Y9453D01*
G01X16515Y9462D01*
G01X16521Y9470D01*
G01X16527Y9479D01*
G01X16532Y9488D01*
G01X16537Y9498D01*
G01X16541Y9507D01*
G01X16545Y9517D01*
G01X16549Y9527D01*
G01X16552Y9537D01*
G01X16555Y9547D01*
G01X16557Y9557D01*
G01X16559Y9568D01*
G01X16560Y9578D01*
G01X16561Y9588D01*
G01X16562Y9599D01*
G01X16562Y9609D01*
G01X16562Y10709D01*
G01X16562Y10720D01*
G01X16561Y10730D01*
G01X16560Y10741D01*
G01X16559Y10751D01*
G01X16557Y10761D01*
G01X16555Y10772D01*
G01X16552Y10782D01*
G01X16549Y10792D01*
G01X16545Y10801D01*
G01X16541Y10811D01*
G01X16537Y10821D01*
G01X16532Y10830D01*
G01X16527Y10839D01*
G01X16521Y10848D01*
G01X16515Y10857D01*
G01X16509Y10865D01*
G01X16502Y10873D01*
G01X16495Y10881D01*
G01X16488Y10889D01*
G01X16480Y10896D01*
G01X16472Y10903D01*
G01X16464Y10910D01*
G01X16456Y10916D01*
G01X16447Y10922D01*
G01X16444Y10924D01*
G01X16586Y10922D01*
G01X16586Y0D01*
G01X76Y0D01*
G37*

%LPC*%
G36*
G01X12330Y2094D02*
G01X13730Y2094D01*
G01X13740Y2094D01*
G01X13751Y2094D01*
G01X13761Y2095D01*
G01X13772Y2097D01*
G01X13782Y2099D01*
G01X13792Y2101D01*
G01X13802Y2104D01*
G01X13812Y2107D01*
G01X13822Y2111D01*
G01X13832Y2115D01*
G01X13841Y2119D01*
G01X13851Y2124D01*
G01X13860Y2129D01*
G01X13869Y2135D01*
G01X13877Y2141D01*
G01X13886Y2147D01*
G01X13894Y2154D01*
G01X13902Y2161D01*
G01X13909Y2168D01*
G01X13917Y2175D01*
G01X13924Y2183D01*
G01X13930Y2191D01*
G01X13936Y2200D01*
G01X13942Y2209D01*
G01X13948Y2217D01*
G01X13953Y2227D01*
G01X13958Y2236D01*
G01X13962Y2245D01*
G01X13966Y2255D01*
G01X13970Y2265D01*
G01X13973Y2275D01*
G01X13976Y2285D01*
G01X13978Y2295D01*
G01X13980Y2306D01*
G01X13982Y2316D01*
G01X13983Y2327D01*
G01X13983Y2337D01*
G01X13984Y2348D01*
G01X13984Y3747D01*
G01X13983Y3758D01*
G01X13983Y3768D01*
G01X13982Y3779D01*
G01X13980Y3789D01*
G01X13978Y3800D01*
G01X13976Y3810D01*
G01X13973Y3820D01*
G01X13970Y3830D01*
G01X13966Y3840D01*
G01X13962Y3850D01*
G01X13958Y3859D01*
G01X13953Y3868D01*
G01X13948Y3878D01*
G01X13942Y3886D01*
G01X13936Y3895D01*
G01X13930Y3904D01*
G01X13924Y3912D01*
G01X13917Y3920D01*
G01X13909Y3927D01*
G01X13902Y3934D01*
G01X13894Y3941D01*
G01X13886Y3948D01*
G01X13877Y3954D01*
G01X13869Y3960D01*
G01X13860Y3966D01*
G01X13851Y3971D01*
G01X13841Y3976D01*
G01X13832Y3980D01*
G01X13822Y3984D01*
G01X13812Y3988D01*
G01X13802Y3991D01*
G01X13792Y3994D01*
G01X13782Y3996D01*
G01X13772Y3998D01*
G01X13761Y4000D01*
G01X13751Y4001D01*
G01X13740Y4001D01*
G01X13730Y4001D01*
G01X12330Y4001D01*
G01X12319Y4001D01*
G01X12309Y4001D01*
G01X12298Y4000D01*
G01X12288Y3998D01*
G01X12278Y3996D01*
G01X12267Y3994D01*
G01X12257Y3991D01*
G01X12247Y3988D01*
G01X12237Y3984D01*
G01X12228Y3980D01*
G01X12218Y3976D01*
G01X12209Y3971D01*
G01X12200Y3966D01*
G01X12191Y3960D01*
G01X12182Y3954D01*
G01X12174Y3948D01*
G01X12166Y3941D01*
G01X12158Y3934D01*
G01X12150Y3927D01*
G01X12143Y3920D01*
G01X12136Y3912D01*
G01X12129Y3904D01*
G01X12123Y3895D01*
G01X12117Y3886D01*
G01X12111Y3878D01*
G01X12106Y3868D01*
G01X12102Y3859D01*
G01X12097Y3850D01*
G01X12093Y3840D01*
G01X12089Y3830D01*
G01X12086Y3820D01*
G01X12083Y3810D01*
G01X12081Y3800D01*
G01X12079Y3789D01*
G01X12078Y3779D01*
G01X12077Y3768D01*
G01X12076Y3758D01*
G01X12076Y3747D01*
G01X12076Y2348D01*
G01X12076Y2337D01*
G01X12077Y2327D01*
G01X12078Y2316D01*
G01X12079Y2306D01*
G01X12081Y2295D01*
G01X12083Y2285D01*
G01X12086Y2275D01*
G01X12089Y2265D01*
G01X12093Y2255D01*
G01X12097Y2245D01*
G01X12102Y2236D01*
G01X12106Y2227D01*
G01X12111Y2217D01*
G01X12117Y2209D01*
G01X12123Y2200D01*
G01X12129Y2191D01*
G01X12136Y2183D01*
G01X12143Y2175D01*
G01X12150Y2168D01*
G01X12158Y2161D01*
G01X12166Y2154D01*
G01X12174Y2147D01*
G01X12182Y2141D01*
G01X12191Y2135D01*
G01X12200Y2129D01*
G01X12209Y2124D01*
G01X12218Y2119D01*
G01X12228Y2115D01*
G01X12237Y2111D01*
G01X12247Y2107D01*
G01X12257Y2104D01*
G01X12267Y2101D01*
G01X12278Y2099D01*
G01X12288Y2097D01*
G01X12298Y2095D01*
G01X12309Y2094D01*
G01X12319Y2094D01*
G01X12330Y2094D01*
G37*
G36*
G01X15380Y2160D02*
G01X15465Y2199D01*
G01X15547Y2246D01*
G01X15625Y2302D01*
G01X15696Y2365D01*
G01X15761Y2434D01*
G01X15818Y2510D01*
G01X15868Y2591D01*
G01X15909Y2677D01*
G01X15916Y2697D01*
G01X15380Y2697D01*
G01X15380Y2160D01*
G37*
G36*
G01X14680Y2161D02*
G01X14680Y2697D01*
G01X14143Y2697D01*
G01X14170Y2634D01*
G01X14216Y2550D01*
G01X14269Y2471D01*
G01X14330Y2399D01*
G01X14398Y2332D01*
G01X14473Y2273D01*
G01X14553Y2221D01*
G01X14637Y2178D01*
G01X14680Y2161D01*
G37*
G36*
G01X2424Y2348D02*
G01X3824Y2348D01*
G01X3834Y2348D01*
G01X3845Y2348D01*
G01X3855Y2349D01*
G01X3866Y2351D01*
G01X3876Y2353D01*
G01X3886Y2355D01*
G01X3896Y2358D01*
G01X3906Y2361D01*
G01X3916Y2365D01*
G01X3926Y2369D01*
G01X3935Y2373D01*
G01X3945Y2378D01*
G01X3954Y2383D01*
G01X3963Y2389D01*
G01X3971Y2395D01*
G01X3980Y2401D01*
G01X3988Y2408D01*
G01X3996Y2415D01*
G01X4003Y2422D01*
G01X4011Y2429D01*
G01X4018Y2437D01*
G01X4024Y2445D01*
G01X4030Y2454D01*
G01X4036Y2463D01*
G01X4042Y2471D01*
G01X4047Y2481D01*
G01X4052Y2490D01*
G01X4056Y2499D01*
G01X4060Y2509D01*
G01X4064Y2519D01*
G01X4067Y2529D01*
G01X4070Y2539D01*
G01X4072Y2549D01*
G01X4074Y2560D01*
G01X4076Y2570D01*
G01X4077Y2581D01*
G01X4077Y2591D01*
G01X4078Y2602D01*
G01X4078Y4001D01*
G01X4077Y4012D01*
G01X4077Y4022D01*
G01X4076Y4033D01*
G01X4074Y4043D01*
G01X4072Y4054D01*
G01X4070Y4064D01*
G01X4067Y4074D01*
G01X4064Y4084D01*
G01X4060Y4094D01*
G01X4056Y4104D01*
G01X4052Y4113D01*
G01X4047Y4122D01*
G01X4042Y4132D01*
G01X4036Y4140D01*
G01X4030Y4149D01*
G01X4024Y4158D01*
G01X4018Y4166D01*
G01X4011Y4174D01*
G01X4003Y4181D01*
G01X3996Y4188D01*
G01X3988Y4195D01*
G01X3980Y4202D01*
G01X3971Y4208D01*
G01X3963Y4214D01*
G01X3954Y4220D01*
G01X3945Y4225D01*
G01X3935Y4230D01*
G01X3926Y4234D01*
G01X3916Y4238D01*
G01X3906Y4242D01*
G01X3896Y4245D01*
G01X3886Y4248D01*
G01X3876Y4250D01*
G01X3866Y4252D01*
G01X3855Y4254D01*
G01X3845Y4255D01*
G01X3834Y4255D01*
G01X3824Y4255D01*
G01X2424Y4255D01*
G01X2413Y4255D01*
G01X2403Y4255D01*
G01X2392Y4254D01*
G01X2382Y4252D01*
G01X2372Y4250D01*
G01X2361Y4248D01*
G01X2351Y4245D01*
G01X2341Y4242D01*
G01X2331Y4238D01*
G01X2322Y4234D01*
G01X2312Y4230D01*
G01X2303Y4225D01*
G01X2294Y4220D01*
G01X2285Y4214D01*
G01X2276Y4208D01*
G01X2268Y4202D01*
G01X2260Y4195D01*
G01X2252Y4188D01*
G01X2244Y4181D01*
G01X2237Y4174D01*
G01X2230Y4166D01*
G01X2223Y4158D01*
G01X2217Y4149D01*
G01X2211Y4140D01*
G01X2205Y4132D01*
G01X2200Y4122D01*
G01X2196Y4113D01*
G01X2191Y4104D01*
G01X2187Y4094D01*
G01X2183Y4084D01*
G01X2180Y4074D01*
G01X2177Y4064D01*
G01X2175Y4054D01*
G01X2173Y4043D01*
G01X2172Y4033D01*
G01X2171Y4022D01*
G01X2170Y4012D01*
G01X2170Y4001D01*
G01X2170Y2602D01*
G01X2170Y2591D01*
G01X2171Y2581D01*
G01X2172Y2570D01*
G01X2173Y2560D01*
G01X2175Y2549D01*
G01X2177Y2539D01*
G01X2180Y2529D01*
G01X2183Y2519D01*
G01X2187Y2509D01*
G01X2191Y2499D01*
G01X2196Y2490D01*
G01X2200Y2481D01*
G01X2205Y2471D01*
G01X2211Y2463D01*
G01X2217Y2454D01*
G01X2223Y2445D01*
G01X2230Y2437D01*
G01X2237Y2429D01*
G01X2244Y2422D01*
G01X2252Y2415D01*
G01X2260Y2408D01*
G01X2268Y2401D01*
G01X2276Y2395D01*
G01X2285Y2389D01*
G01X2294Y2383D01*
G01X2303Y2378D01*
G01X2312Y2373D01*
G01X2322Y2369D01*
G01X2331Y2365D01*
G01X2341Y2361D01*
G01X2351Y2358D01*
G01X2361Y2355D01*
G01X2372Y2353D01*
G01X2382Y2351D01*
G01X2392Y2349D01*
G01X2403Y2348D01*
G01X2413Y2348D01*
G01X2424Y2348D01*
G37*
G36*
G01X8839Y2360D02*
G01X8921Y2397D01*
G01X9009Y2448D01*
G01X9091Y2507D01*
G01X9167Y2574D01*
G01X9236Y2648D01*
G01X9297Y2729D01*
G01X9350Y2816D01*
G01X9394Y2907D01*
G01X9399Y2921D01*
G01X8839Y2921D01*
G01X8839Y2360D01*
G37*
G36*
G01X8077Y2361D02*
G01X8077Y2921D01*
G01X7517Y2921D01*
G01X7542Y2861D01*
G01X7591Y2772D01*
G01X7648Y2688D01*
G01X7713Y2610D01*
G01X7785Y2540D01*
G01X7865Y2477D01*
G01X7950Y2422D01*
G01X8040Y2375D01*
G01X8077Y2361D01*
G37*
G36*
G01X5474Y2414D02*
G01X5559Y2453D01*
G01X5641Y2500D01*
G01X5719Y2556D01*
G01X5790Y2619D01*
G01X5855Y2688D01*
G01X5912Y2764D01*
G01X5962Y2845D01*
G01X6003Y2931D01*
G01X6010Y2951D01*
G01X5474Y2951D01*
G01X5474Y2414D01*
G37*
G36*
G01X4774Y2415D02*
G01X4774Y2951D01*
G01X4237Y2951D01*
G01X4264Y2888D01*
G01X4310Y2804D01*
G01X4363Y2725D01*
G01X4424Y2653D01*
G01X4492Y2586D01*
G01X4567Y2527D01*
G01X4647Y2475D01*
G01X4731Y2432D01*
G01X4774Y2415D01*
G37*
G36*
G01X15380Y3398D02*
G01X15916Y3398D01*
G01X15909Y3418D01*
G01X15868Y3504D01*
G01X15818Y3585D01*
G01X15761Y3661D01*
G01X15696Y3730D01*
G01X15625Y3793D01*
G01X15547Y3849D01*
G01X15465Y3896D01*
G01X15380Y3935D01*
G01X15380Y3398D01*
G37*
G36*
G01X14143Y3398D02*
G01X14680Y3398D01*
G01X14680Y3934D01*
G01X14637Y3917D01*
G01X14553Y3874D01*
G01X14473Y3822D01*
G01X14398Y3763D01*
G01X14330Y3696D01*
G01X14269Y3624D01*
G01X14216Y3545D01*
G01X14170Y3461D01*
G01X14143Y3398D01*
G37*
G36*
G01X5474Y3652D02*
G01X6010Y3652D01*
G01X6003Y3672D01*
G01X5962Y3758D01*
G01X5912Y3839D01*
G01X5855Y3915D01*
G01X5790Y3984D01*
G01X5719Y4047D01*
G01X5641Y4103D01*
G01X5559Y4150D01*
G01X5474Y4189D01*
G01X5474Y3652D01*
G37*
G36*
G01X4237Y3652D02*
G01X4774Y3652D01*
G01X4774Y4188D01*
G01X4731Y4171D01*
G01X4647Y4128D01*
G01X4567Y4076D01*
G01X4492Y4017D01*
G01X4424Y3950D01*
G01X4363Y3878D01*
G01X4310Y3799D01*
G01X4264Y3715D01*
G01X4237Y3652D01*
G37*
G36*
G01X8839Y3683D02*
G01X9399Y3683D01*
G01X9394Y3696D01*
G01X9350Y3787D01*
G01X9297Y3874D01*
G01X9236Y3955D01*
G01X9167Y4029D01*
G01X9091Y4096D01*
G01X9009Y4155D01*
G01X8921Y4206D01*
G01X8839Y4243D01*
G01X8839Y3683D01*
G37*
G36*
G01X7517Y3683D02*
G01X8077Y3683D01*
G01X8077Y4242D01*
G01X8040Y4228D01*
G01X7950Y4181D01*
G01X7865Y4126D01*
G01X7785Y4063D01*
G01X7713Y3993D01*
G01X7648Y3915D01*
G01X7591Y3831D01*
G01X7542Y3742D01*
G01X7517Y3683D01*
G37*
G36*
G01X1442Y7018D02*
G01X1527Y7057D01*
G01X1609Y7104D01*
G01X1687Y7160D01*
G01X1758Y7223D01*
G01X1823Y7292D01*
G01X1880Y7368D01*
G01X1930Y7449D01*
G01X1971Y7535D01*
G01X1978Y7555D01*
G01X1442Y7555D01*
G01X1442Y7018D01*
G37*
G36*
G01X742Y7019D02*
G01X742Y7555D01*
G01X205Y7555D01*
G01X232Y7492D01*
G01X278Y7408D01*
G01X331Y7329D01*
G01X392Y7257D01*
G01X460Y7190D01*
G01X535Y7131D01*
G01X615Y7079D01*
G01X699Y7036D01*
G01X742Y7019D01*
G37*
G36*
G01X8432Y7286D02*
G01X8534Y7288D01*
G01X8634Y7301D01*
G01X8733Y7323D01*
G01X8829Y7356D01*
G01X8921Y7397D01*
G01X9009Y7448D01*
G01X9091Y7507D01*
G01X9167Y7574D01*
G01X9236Y7648D01*
G01X9297Y7729D01*
G01X9350Y7816D01*
G01X9394Y7907D01*
G01X9429Y8002D01*
G01X9454Y8100D01*
G01X9469Y8200D01*
G01X9474Y8301D01*
G01X9469Y8403D01*
G01X9454Y8503D01*
G01X9429Y8601D01*
G01X9394Y8696D01*
G01X9350Y8787D01*
G01X9297Y8874D01*
G01X9236Y8955D01*
G01X9167Y9029D01*
G01X9091Y9096D01*
G01X9009Y9155D01*
G01X8921Y9206D01*
G01X8829Y9247D01*
G01X8733Y9280D01*
G01X8634Y9302D01*
G01X8534Y9315D01*
G01X8432Y9317D01*
G01X8331Y9310D01*
G01X8232Y9292D01*
G01X8134Y9265D01*
G01X8040Y9228D01*
G01X7950Y9181D01*
G01X7865Y9126D01*
G01X7785Y9063D01*
G01X7713Y8993D01*
G01X7648Y8915D01*
G01X7591Y8831D01*
G01X7542Y8742D01*
G01X7503Y8649D01*
G01X7473Y8552D01*
G01X7453Y8453D01*
G01X7443Y8352D01*
G01X7443Y8251D01*
G01X7453Y8150D01*
G01X7473Y8051D01*
G01X7503Y7954D01*
G01X7542Y7861D01*
G01X7591Y7772D01*
G01X7648Y7688D01*
G01X7713Y7610D01*
G01X7785Y7540D01*
G01X7865Y7477D01*
G01X7950Y7422D01*
G01X8040Y7375D01*
G01X8134Y7338D01*
G01X8232Y7311D01*
G01X8331Y7293D01*
G01X8432Y7286D01*
G37*
G36*
G01X1442Y8256D02*
G01X1978Y8256D01*
G01X1971Y8276D01*
G01X1930Y8362D01*
G01X1880Y8443D01*
G01X1823Y8519D01*
G01X1758Y8588D01*
G01X1687Y8651D01*
G01X1609Y8707D01*
G01X1527Y8754D01*
G01X1442Y8793D01*
G01X1442Y8256D01*
G37*
G36*
G01X205Y8256D02*
G01X742Y8256D01*
G01X742Y8792D01*
G01X699Y8775D01*
G01X615Y8732D01*
G01X535Y8680D01*
G01X460Y8621D01*
G01X392Y8554D01*
G01X331Y8482D01*
G01X278Y8403D01*
G01X232Y8319D01*
G01X205Y8256D01*
G37*
G36*
G01X392Y8952D02*
G01X1792Y8952D01*
G01X1802Y8952D01*
G01X1813Y8952D01*
G01X1823Y8953D01*
G01X1834Y8955D01*
G01X1844Y8957D01*
G01X1854Y8959D01*
G01X1864Y8962D01*
G01X1874Y8965D01*
G01X1884Y8969D01*
G01X1894Y8973D01*
G01X1903Y8977D01*
G01X1913Y8982D01*
G01X1922Y8987D01*
G01X1931Y8993D01*
G01X1939Y8999D01*
G01X1948Y9005D01*
G01X1956Y9012D01*
G01X1964Y9019D01*
G01X1971Y9026D01*
G01X1979Y9033D01*
G01X1986Y9041D01*
G01X1992Y9049D01*
G01X1998Y9058D01*
G01X2004Y9067D01*
G01X2010Y9075D01*
G01X2015Y9085D01*
G01X2020Y9094D01*
G01X2024Y9103D01*
G01X2028Y9113D01*
G01X2032Y9123D01*
G01X2035Y9133D01*
G01X2038Y9143D01*
G01X2040Y9153D01*
G01X2042Y9164D01*
G01X2044Y9174D01*
G01X2045Y9185D01*
G01X2045Y9195D01*
G01X2046Y9206D01*
G01X2046Y10605D01*
G01X2045Y10616D01*
G01X2045Y10626D01*
G01X2044Y10637D01*
G01X2042Y10647D01*
G01X2040Y10658D01*
G01X2038Y10668D01*
G01X2035Y10678D01*
G01X2032Y10688D01*
G01X2028Y10698D01*
G01X2024Y10708D01*
G01X2020Y10717D01*
G01X2015Y10726D01*
G01X2010Y10736D01*
G01X2004Y10744D01*
G01X1998Y10753D01*
G01X1992Y10762D01*
G01X1986Y10770D01*
G01X1979Y10778D01*
G01X1971Y10785D01*
G01X1964Y10792D01*
G01X1956Y10799D01*
G01X1948Y10806D01*
G01X1939Y10812D01*
G01X1931Y10818D01*
G01X1922Y10824D01*
G01X1913Y10829D01*
G01X1903Y10834D01*
G01X1894Y10838D01*
G01X1884Y10842D01*
G01X1874Y10846D01*
G01X1864Y10849D01*
G01X1854Y10852D01*
G01X1844Y10854D01*
G01X1834Y10856D01*
G01X1823Y10858D01*
G01X1813Y10859D01*
G01X1802Y10859D01*
G01X1792Y10859D01*
G01X392Y10859D01*
G01X381Y10859D01*
G01X371Y10859D01*
G01X360Y10858D01*
G01X350Y10856D01*
G01X340Y10854D01*
G01X329Y10852D01*
G01X319Y10849D01*
G01X309Y10846D01*
G01X299Y10842D01*
G01X290Y10838D01*
G01X280Y10834D01*
G01X271Y10829D01*
G01X262Y10824D01*
G01X253Y10818D01*
G01X244Y10812D01*
G01X236Y10806D01*
G01X228Y10799D01*
G01X220Y10792D01*
G01X212Y10785D01*
G01X205Y10778D01*
G01X198Y10770D01*
G01X191Y10762D01*
G01X185Y10753D01*
G01X179Y10744D01*
G01X173Y10736D01*
G01X168Y10726D01*
G01X164Y10717D01*
G01X159Y10708D01*
G01X155Y10698D01*
G01X151Y10688D01*
G01X148Y10678D01*
G01X145Y10668D01*
G01X143Y10658D01*
G01X141Y10647D01*
G01X140Y10637D01*
G01X139Y10626D01*
G01X138Y10616D01*
G01X138Y10605D01*
G01X138Y9206D01*
G01X138Y9195D01*
G01X139Y9185D01*
G01X140Y9174D01*
G01X141Y9164D01*
G01X143Y9153D01*
G01X145Y9143D01*
G01X148Y9133D01*
G01X151Y9123D01*
G01X155Y9113D01*
G01X159Y9103D01*
G01X164Y9094D01*
G01X168Y9085D01*
G01X173Y9075D01*
G01X179Y9067D01*
G01X185Y9058D01*
G01X191Y9049D01*
G01X198Y9041D01*
G01X205Y9033D01*
G01X212Y9026D01*
G01X220Y9019D01*
G01X228Y9012D01*
G01X236Y9005D01*
G01X244Y8999D01*
G01X253Y8993D01*
G01X262Y8987D01*
G01X271Y8982D01*
G01X280Y8977D01*
G01X290Y8973D01*
G01X299Y8969D01*
G01X309Y8965D01*
G01X319Y8962D01*
G01X329Y8959D01*
G01X340Y8957D01*
G01X350Y8955D01*
G01X360Y8953D01*
G01X371Y8952D01*
G01X381Y8952D01*
G01X392Y8952D01*
G37*

%LPD*%
G54D10*
G01X14209Y10159D02*
G01X13030Y10159D01*
G01X12776Y10414D01*
G01X14391Y8636D02*
G01X14391Y9977D01*
G01X14209Y10159D01*
G01X15808Y10159D02*
G01X15808Y9204D01*
G01X15240Y8636D01*
G01X15240Y8636D02*
G01X15240Y8051D01*
G01X12776Y5588D01*
G54D11*
G01X15808Y10159D03*
G01X14209Y10159D03*
G54D12*
G01X15240Y8636D03*
G01X14391Y8636D03*
G54D17*
G01X8458Y3302D03*
G01X8458Y8301D03*
G54D18*
G01X1092Y9906D03*
G54D19*
G01X1092Y7906D03*
G54D18*
G01X3124Y3302D03*
G54D19*
G01X5124Y3302D03*
G54D18*
G01X13030Y3048D03*
G54D19*
G01X15030Y3048D03*
G54D17*
G01X12776Y5588D03*
G01X12776Y10160D03*
M00*
M02*
