G04 ---------------------------- Layer name :TOP SILK LAYER*
G04 EasyEDA v5.6.10, Tue, 17 Jul 2018 20:10:34 GMT*
G04 41f5d608da314f4496c1683ca2e9a323*
G04 Gerber Generator version 0.2*
G04 Scale: 100 percent, Rotated: No, Reflected: No *
G04 Dimensions in millimeters *
G04 leading zeros omitted , absolute positions ,3 integer and 3 decimal *
%FSLAX33Y33*%
%MOMM*%
G90*
G71D02*

%ADD10C,0.254000*%
%ADD20C,0.101600*%
%ADD21C,0.200000*%
%ADD22C,0.203200*%
%ADD23C,0.177800*%

%LPD*%
G54D20*
G01X3556Y9728D02*
G01X4191Y9728D01*
G01X4191Y10591D01*
G01X3657Y10591D01*
G01X3556Y10591D01*
G01X3175Y10591D02*
G01X2565Y10591D01*
G01X2565Y9728D01*
G01X3098Y9728D01*
G01X3175Y9728D01*
G54D21*
G01X3086Y8311D02*
G01X3086Y9411D01*
G01X4686Y9411D01*
G01X4686Y8311D01*
G01X3086Y7512D02*
G01X3086Y6411D01*
G01X4086Y6411D01*
G01X4686Y6411D01*
G01X4686Y7512D01*
G54D10*
G01X12776Y9144D02*
G01X12776Y9398D01*
G01X15062Y9398D01*
G01X15062Y6604D01*
G01X12776Y6604D01*
G01X12776Y9144D01*
G54D22*
G01X2117Y10905D02*
G01X2117Y6899D01*
G01X92Y6899D01*
G01X92Y10905D01*
G01X2117Y10905D01*
G01X2124Y4327D02*
G01X6130Y4327D01*
G01X6130Y2302D01*
G01X2124Y2302D01*
G01X2124Y4327D01*
G01X12030Y4073D02*
G01X16036Y4073D01*
G01X16036Y2048D01*
G01X12030Y2048D01*
G01X12030Y4073D01*
G54D10*
G01X7594Y6654D02*
G01X8204Y6654D01*
G01X8204Y6654D02*
G01X8204Y9855D01*
G01X5613Y6654D02*
G01X5003Y6654D01*
G01X5003Y6654D02*
G01X5003Y9855D01*
G54D23*
G01X3378Y9004D02*
G01X3378Y7914D01*
G01X3378Y9004D02*
G01X3845Y9004D01*
G01X4000Y8953D01*
G01X4053Y8902D01*
G01X4104Y8798D01*
G01X4104Y8694D01*
G01X4053Y8590D01*
G01X4000Y8536D01*
G01X3845Y8486D01*
G01X3378Y8486D01*
G01X3741Y8486D02*
G01X4104Y7914D01*
G01X4447Y8798D02*
G01X4551Y8849D01*
G01X4709Y9004D01*
G01X4709Y7914D01*
G01X1236Y8653D02*
G01X1132Y8600D01*
G01X1028Y8496D01*
G01X977Y8394D01*
G01X977Y8186D01*
G01X1028Y8082D01*
G01X1132Y7978D01*
G01X1236Y7924D01*
G01X1391Y7874D01*
G01X1651Y7874D01*
G01X1808Y7924D01*
G01X1912Y7978D01*
G01X2016Y8082D01*
G01X2067Y8186D01*
G01X2067Y8394D01*
G01X2016Y8496D01*
G01X1912Y8600D01*
G01X1808Y8653D01*
G01X1183Y8996D02*
G01X1132Y9100D01*
G01X977Y9255D01*
G01X2067Y9255D01*
G01X10121Y7874D02*
G01X10899Y7874D01*
G01X11056Y7924D01*
G01X11160Y8028D01*
G01X11211Y8186D01*
G01X11211Y8290D01*
G01X11160Y8445D01*
G01X11056Y8549D01*
G01X10899Y8600D01*
G01X10121Y8600D01*
G01X10327Y8943D02*
G01X10276Y9047D01*
G01X10121Y9204D01*
G01X11211Y9204D01*
G01X1092Y12705D02*
G01X1092Y11612D01*
G01X1092Y12705D02*
G01X1559Y12705D01*
G01X1714Y12651D01*
G01X1767Y12600D01*
G01X1818Y12496D01*
G01X1818Y12341D01*
G01X1767Y12237D01*
G01X1714Y12184D01*
G01X1559Y12133D01*
G01X1092Y12133D01*
G01X2214Y12443D02*
G01X2214Y12496D01*
G01X2265Y12600D01*
G01X2319Y12651D01*
G01X2423Y12705D01*
G01X2628Y12705D01*
G01X2733Y12651D01*
G01X2786Y12600D01*
G01X2837Y12496D01*
G01X2837Y12392D01*
G01X2786Y12288D01*
G01X2682Y12133D01*
G01X2161Y11612D01*
G01X2890Y11612D01*
G01X325Y3302D02*
G01X1417Y3302D01*
G01X325Y3302D02*
G01X325Y3769D01*
G01X378Y3924D01*
G01X429Y3977D01*
G01X533Y4028D01*
G01X688Y4028D01*
G01X792Y3977D01*
G01X845Y3924D01*
G01X896Y3769D01*
G01X896Y3302D01*
G01X325Y4475D02*
G01X325Y5046D01*
G01X741Y4737D01*
G01X741Y4892D01*
G01X792Y4996D01*
G01X845Y5046D01*
G01X1000Y5100D01*
G01X1104Y5100D01*
G01X1259Y5046D01*
G01X1363Y4942D01*
G01X1417Y4787D01*
G01X1417Y4632D01*
G01X1363Y4475D01*
G01X1313Y4424D01*
G01X1209Y4371D01*
G01X10231Y3048D02*
G01X11323Y3048D01*
G01X10231Y3048D02*
G01X10231Y3515D01*
G01X10284Y3670D01*
G01X10335Y3723D01*
G01X10439Y3774D01*
G01X10594Y3774D01*
G01X10698Y3723D01*
G01X10751Y3670D01*
G01X10802Y3515D01*
G01X10802Y3048D01*
G01X10231Y4638D02*
G01X10960Y4117D01*
G01X10960Y4897D01*
G01X10231Y4638D02*
G01X11323Y4638D01*
G01X8402Y4231D02*
G01X8402Y5008D01*
G01X8351Y5166D01*
G01X8247Y5270D01*
G01X8089Y5321D01*
G01X7985Y5321D01*
G01X7830Y5270D01*
G01X7726Y5166D01*
G01X7675Y5008D01*
G01X7675Y4231D01*
G01X7228Y4231D02*
G01X6657Y4231D01*
G01X6967Y4645D01*
G01X6812Y4645D01*
G01X6708Y4699D01*
G01X6657Y4749D01*
G01X6604Y4904D01*
G01X6604Y5008D01*
G01X6657Y5166D01*
G01X6761Y5270D01*
G01X6916Y5321D01*
G01X7071Y5321D01*
G01X7228Y5270D01*
G01X7279Y5217D01*
G01X7332Y5113D01*
M00*
M02*
